<?xml version="1.0" encoding="utf-8"?>
<!-- Generator: Adobe Illustrator 16.0.0, SVG Export Plug-In . SVG Version: 6.00 Build 0)  -->
<!DOCTYPE svg PUBLIC "-//W3C//DTD SVG 1.1//EN" "http://www.w3.org/Graphics/SVG/1.1/DTD/svg11.dtd">
<svg version="1.1" id="Layer_1" xmlns="http://www.w3.org/2000/svg" xmlns:xlink="http://www.w3.org/1999/xlink" x="0px" y="0px"
	 width="260px" height="122px" viewBox="0 0 260 122" enable-background="new 0 0 260 122" xml:space="preserve">
<g>
	<path d="M15.5,77.615h7.326V97.14l23.606-18.723h5.291L30.641,95.186l25.152,24.094h-9.768L22.827,97.546v21.733H15.5V77.615z"/>
	<path d="M61.287,55.787h7.326v63.492h-7.326V55.787z"/>
	<path d="M75.87,60.916c0-1.303,0.501-2.455,1.506-3.46c1.003-1.003,2.157-1.505,3.46-1.505c1.355,0,2.536,0.502,3.541,1.505
		c1.004,1.005,1.506,2.157,1.506,3.46c0,1.357-0.502,2.537-1.506,3.541c-1.004,1.004-2.185,1.506-3.541,1.506
		c-1.303,0-2.457-0.502-3.46-1.506C76.371,63.453,75.87,62.273,75.87,60.916z M77.173,78.417h7.326v40.862h-7.326V78.417z"/>
	<path d="M113.299,120.257c-3.147,0-6.011-0.544-8.587-1.629c-2.578-1.085-4.776-2.576-6.594-4.478
		c-1.818-1.897-3.215-4.15-4.192-6.755c-0.977-2.605-1.465-5.427-1.465-8.467c0-3.418,0.57-6.471,1.709-9.156
		c1.139-2.687,2.686-4.952,4.64-6.798c1.954-1.843,4.219-3.255,6.797-4.232c2.576-0.978,5.303-1.465,8.181-1.465
		c2.495,0,4.748,0.285,6.756,0.854c2.006,0.569,3.703,1.303,5.087,2.198c1.383,0.895,2.441,1.887,3.174,2.972
		c0.732,1.085,1.099,2.17,1.099,3.255c0,1.194-0.325,2.131-0.977,2.809c-0.651,0.679-1.438,1.018-2.36,1.018
		c-1.302,0-2.293-0.353-2.971-1.059c-0.68-0.704-1.235-1.709-1.669-3.012c-0.217-0.813-0.516-1.614-0.896-2.401
		c-0.38-0.786-0.895-1.506-1.547-2.156c-0.651-0.651-1.505-1.167-2.563-1.547c-1.059-0.38-2.401-0.569-4.029-0.569
		c-1.791,0-3.474,0.352-5.047,1.057c-1.574,0.707-2.958,1.725-4.151,3.053c-1.194,1.33-2.13,2.999-2.808,5.006
		c-0.68,2.009-1.018,4.314-1.018,6.92c0,3.039,0.393,5.779,1.181,8.222c0.786,2.441,1.885,4.517,3.297,6.227
		c1.41,1.71,3.105,3.025,5.087,3.948c1.98,0.923,4.164,1.384,6.553,1.384c1.573,0,3.105-0.203,4.599-0.611
		c1.492-0.406,2.89-1.058,4.192-1.953c1.302-0.896,2.455-2.088,3.459-3.581c1.004-1.492,1.803-3.35,2.401-5.575h2.197
		c-1.193,5.644-3.473,9.808-6.837,12.494C122.632,118.914,118.399,120.257,113.299,120.257z"/>
	<path d="M139.563,55.787h7.326v63.492h-7.326V55.787z"/>
	<path d="M154.458,60.916c0-1.303,0.501-2.455,1.506-3.46c1.004-1.003,2.158-1.505,3.459-1.505c1.356,0,2.538,0.502,3.541,1.505
		c1.004,1.005,1.506,2.157,1.506,3.46c0,1.357-0.502,2.537-1.506,3.541c-1.003,1.004-2.185,1.506-3.541,1.506
		c-1.301,0-2.455-0.502-3.459-1.506C154.959,63.453,154.458,62.273,154.458,60.916z M155.761,78.417h7.326v40.862h-7.326V78.417z"/>
	<path d="M191.888,120.257c-3.147,0-6.01-0.544-8.587-1.629c-2.578-1.085-4.776-2.576-6.594-4.478
		c-1.819-1.897-3.216-4.15-4.192-6.755c-0.977-2.605-1.465-5.427-1.465-8.467c0-3.418,0.57-6.471,1.709-9.156
		c1.139-2.687,2.686-4.952,4.641-6.798c1.953-1.843,4.218-3.255,6.796-4.232c2.577-0.978,5.305-1.465,8.181-1.465
		c2.496,0,4.748,0.285,6.758,0.854c2.006,0.569,3.703,1.303,5.088,2.198c1.383,0.895,2.439,1.887,3.172,2.972
		c0.733,1.085,1.101,2.17,1.101,3.255c0,1.194-0.327,2.131-0.978,2.809c-0.65,0.679-1.438,1.018-2.361,1.018
		c-1.302,0-2.292-0.353-2.97-1.059c-0.681-0.704-1.235-1.709-1.669-3.012c-0.218-0.813-0.516-1.614-0.896-2.401
		c-0.38-0.786-0.896-1.506-1.547-2.156c-0.651-0.651-1.506-1.167-2.563-1.547c-1.059-0.38-2.401-0.569-4.029-0.569
		c-1.791,0-3.474,0.352-5.047,1.057c-1.575,0.707-2.959,1.725-4.151,3.053c-1.194,1.33-2.132,2.999-2.808,5.006
		c-0.68,2.009-1.019,4.314-1.019,6.92c0,3.039,0.394,5.779,1.181,8.222c0.785,2.441,1.885,4.517,3.297,6.227
		c1.41,1.71,3.105,3.025,5.088,3.948c1.98,0.923,4.163,1.384,6.553,1.384c1.572,0,3.105-0.203,4.598-0.611
		c1.492-0.406,2.891-1.058,4.193-1.953c1.302-0.896,2.454-2.088,3.459-3.581c1.003-1.492,1.803-3.35,2.402-5.575h2.197
		c-1.195,5.644-3.475,9.808-6.838,12.494C201.222,118.914,196.988,120.257,191.888,120.257z"/>
	<path d="M217.989,55.787h7.326V97.14l23.607-18.723h5.29L233.13,95.186l25.153,24.094h-9.769l-23.199-21.733v21.733h-7.326V55.787z
		"/>
</g>
<g>
	<path d="M244.5,44.385h-7.326V24.86l-23.606,18.723h-5.291l21.083-16.769L204.207,2.721h9.768l23.199,21.733V2.721h7.326V44.385z"
		/>
	<path d="M198.714,66.213h-7.326V2.721h7.326V66.213z"/>
	<path d="M184.13,61.084c0,1.303-0.5,2.455-1.506,3.46c-1.003,1.003-2.156,1.505-3.459,1.505c-1.355,0-2.537-0.502-3.541-1.505
		c-1.004-1.005-1.506-2.157-1.506-3.46c0-1.357,0.502-2.537,1.506-3.541s2.186-1.506,3.541-1.506c1.303,0,2.456,0.502,3.459,1.506
		C183.63,58.547,184.13,59.727,184.13,61.084z M182.827,43.583h-7.326V2.721h7.326V43.583z"/>
	<path d="M146.701,1.743c3.147,0,6.011,0.544,8.587,1.629c2.578,1.085,4.776,2.576,6.594,4.478c1.818,1.897,3.215,4.15,4.192,6.755
		c0.978,2.605,1.466,5.427,1.466,8.467c0,3.418-0.57,6.471-1.71,9.156c-1.14,2.687-2.687,4.952-4.64,6.798
		c-1.953,1.843-4.219,3.255-6.797,4.232c-2.576,0.978-5.304,1.465-8.182,1.465c-2.494,0-4.748-0.285-6.756-0.854
		c-2.006-0.569-3.703-1.303-5.088-2.198c-1.383-0.895-2.441-1.887-3.174-2.972s-1.099-2.17-1.099-3.255
		c0-1.194,0.325-2.131,0.977-2.809c0.651-0.679,1.438-1.018,2.36-1.018c1.303,0,2.293,0.353,2.971,1.059
		c0.68,0.704,1.236,1.709,1.67,3.012c0.217,0.813,0.516,1.614,0.895,2.401c0.381,0.786,0.896,1.506,1.547,2.156
		c0.651,0.651,1.506,1.167,2.564,1.547s2.4,0.569,4.029,0.569c1.79,0,3.473-0.352,5.047-1.057c1.574-0.707,2.957-1.725,4.151-3.053
		c1.194-1.33,2.13-2.999,2.808-5.006c0.68-2.009,1.018-4.314,1.018-6.92c0-3.039-0.393-5.779-1.18-8.222
		c-0.786-2.441-1.885-4.517-3.297-6.227c-1.41-1.71-3.105-3.025-5.088-3.948c-1.98-0.923-4.164-1.384-6.553-1.384
		c-1.573,0-3.105,0.203-4.599,0.611c-1.492,0.406-2.89,1.058-4.192,1.953s-2.455,2.088-3.459,3.581
		c-1.004,1.492-1.804,3.35-2.402,5.575h-2.198c1.194-5.644,3.474-9.808,6.838-12.494C137.368,3.086,141.601,1.743,146.701,1.743z"/>
	<path d="M120.437,66.213h-7.326V2.721h7.326V66.213z"/>
	<path d="M105.542,61.084c0,1.303-0.5,2.455-1.506,3.46c-1.003,1.003-2.157,1.505-3.459,1.505c-1.356,0-2.538-0.502-3.541-1.505
		c-1.004-1.005-1.506-2.157-1.506-3.46c0-1.357,0.502-2.537,1.506-3.541c1.003-1.004,2.185-1.506,3.541-1.506
		c1.302,0,2.456,0.502,3.459,1.506C105.042,58.547,105.542,59.727,105.542,61.084z M104.24,43.583h-7.326V2.721h7.326V43.583z"/>
	<path d="M68.113,1.743c3.147,0,6.01,0.544,8.587,1.629c2.578,1.085,4.776,2.576,6.594,4.478c1.819,1.897,3.215,4.15,4.193,6.755
		c0.976,2.605,1.465,5.427,1.465,8.467c0,3.418-0.57,6.471-1.71,9.156c-1.139,2.687-2.686,4.952-4.64,6.798
		c-1.954,1.843-4.218,3.255-6.796,4.232c-2.577,0.978-5.305,1.465-8.181,1.465c-2.496,0-4.748-0.285-6.757-0.854
		c-2.007-0.569-3.703-1.303-5.088-2.198c-1.383-0.895-2.44-1.887-3.173-2.972c-0.733-1.085-1.1-2.17-1.1-3.255
		c0-1.194,0.327-2.131,0.978-2.809c0.651-0.679,1.438-1.018,2.361-1.018c1.302,0,2.292,0.353,2.97,1.059
		c0.68,0.704,1.235,1.709,1.668,3.012c0.218,0.813,0.517,1.614,0.896,2.401c0.38,0.786,0.896,1.506,1.547,2.156
		c0.651,0.651,1.506,1.167,2.563,1.547c1.059,0.38,2.402,0.569,4.03,0.569c1.79,0,3.473-0.352,5.047-1.057
		c1.575-0.707,2.958-1.725,4.151-3.053c1.194-1.33,2.131-2.999,2.808-5.006c0.68-2.009,1.018-4.314,1.018-6.92
		c0-3.039-0.393-5.779-1.181-8.222c-0.785-2.441-1.885-4.517-3.296-6.227c-1.411-1.71-3.106-3.025-5.088-3.948
		c-1.98-0.923-4.164-1.384-6.553-1.384c-1.572,0-3.105,0.203-4.599,0.611c-1.492,0.406-2.89,1.058-4.192,1.953
		c-1.302,0.896-2.455,2.088-3.459,3.581c-1.003,1.492-1.804,3.35-2.402,5.575h-2.198c1.195-5.644,3.474-9.808,6.838-12.494
		C58.779,3.086,63.012,1.743,68.113,1.743z"/>
	<path d="M42.011,66.213h-7.326V24.86L11.078,43.583H5.788L26.87,26.814L1.717,2.721h9.769l23.199,21.733V2.721h7.326V66.213z"/>
</g>
</svg>
